<svg id="Layer_1" data-name="Layer 1" xmlns="http://www.w3.org/2000/svg" viewBox="0 0 52.16 39.58"><title>E-mail v1</title><path d="M656.94,364.38c2.95,4.58,5.65,6.89,10.23,11.17l7.49,6.94L679.5,387c.82.73,1.48,1.42,2.4,2.14a5.61,5.61,0,0,0,1.6.88,3.31,3.31,0,0,0,2,0,3.79,3.79,0,0,0,1.36-.82,10,10,0,0,0,.81-.85l1.32-1.48,2.39-2.7,3.8-4.29,3.19-3.61,3.71-4,6.26-6.84.48-.53.24-.27c.08-.07-.06,0-.09,0h-.16l-1.35.12-2.82.24-5.58.48c-9.22.7-19.28,1.49-22.62,1.84A51.72,51.72,0,0,0,661.82,371a51.45,51.45,0,0,0,15,.66c3.35-.32,13.4-1.55,22.59-2.7a4.82,4.82,0,0,0,.82-.12l.4-.08.47-.09.25,0c.06,0,.05,0,0,0l0,.07-.45.62c-.22.28-.17.26-.88,1.09l-3.5,4.16-3.16,3.64-3.76,4.32-2.37,2.72-1.3,1.49a3.08,3.08,0,0,1-1.1,1,1,1,0,0,1-.65,0,3.31,3.31,0,0,1-.94-.51c-.66-.5-1.46-1.28-2.25-2l-4.89-4.4L668.56,374c-4.63-4.23-6.87-7.07-11.62-9.6" transform="translate(-656.94 -364.38)"/><path d="M660.53,374.24a9.49,9.49,0,0,0,1.08-2.92l-2.08-.05a23.34,23.34,0,0,0-.31,4.31c0,1.64,0,6.57.24,11.08s.73,8.59.73,8.59l0,.71c0,.34.06.74.1,1.21l.18,1.77c.15,1.38.32,3,.51,4.76l0,.17V404s0,0,0,0l.22-.22.44-.44.92-.92,2-2,2-2,1.19-1.18L670,394.9c1.39-1.39,2.51-2.55,3-3.14a13.65,13.65,0,0,0,3.3-6.74,13.19,13.19,0,0,0-6.36,3.79c-.55.59-1.6,1.81-2.87,3.31l-2,2.42L664,395.83l-.14.16s0,0,0,0l0,.07-.09.16a5.16,5.16,0,0,1-.53.77,4.94,4.94,0,0,1-.22-.61l-.1-.34a3.08,3.08,0,0,1-.09-.42l-.12-.69s-.56-4-.9-8.44-.49-9.3-.48-10.92.22-3,.16-4.26l-1.75,0a7.14,7.14,0,0,0,.84,2.94" transform="translate(-656.94 -364.38)"/><path d="M663.86,402.74c3.48.46,5.54-.19,9.32-1a134.07,134.07,0,0,1,13.92-2c5.71-.53,10.93-.51,10.93-.51s1.3,0,3.32.18a14.11,14.11,0,0,0,1.92.05,3.21,3.21,0,0,0,2.59-1.6,4.11,4.11,0,0,0,.5-1.68,7.63,7.63,0,0,0,0-1.39c-.1-.88-.2-1.5-.29-2.24a86.91,86.91,0,0,1-.48-14.12,31.65,31.65,0,0,0-1.16-9.57,17.81,17.81,0,0,0-3,9.42,58.15,58.15,0,0,0,.15,6,72.27,72.27,0,0,0,1.21,8.83l.43,2.07a4.75,4.75,0,0,1,.07.72.61.61,0,0,1,0,.26.53.53,0,0,1-.4.34c-.16,0-.92,0-1.39.05-2.06,0-3.39.1-3.39.1s-5.32.07-11.13.71a135.72,135.72,0,0,0-14.13,2.3c-3.81.83-6.13.83-8.91,3" transform="translate(-656.94 -364.38)"/><path d="M690,388.15a2.34,2.34,0,0,0,1.13,2.6c.84.76,5.21,4.36,5.21,4.36s3.78,4.34,4.66,5,1.74.45,3.26-.06c.18-1.62.19-2.58-.59-3.28s-5.75-3.68-5.75-3.68-4.59-3.32-5.48-4-.92-1.46-2.44-1" transform="translate(-656.94 -364.38)"/></svg>