<svg id="Layer_1" data-name="Layer 1" xmlns="http://www.w3.org/2000/svg" viewBox="0 0 43.12 48.33"><title>Phone v1</title><path d="M667.77,390.39c1.86,3.71,8,11.82,8,11.82s6.14,6.63,11.88,5.93,9.54-1.05,12.83-2.36.34-5.48-1-8.6a24.66,24.66,0,0,0-3.91-5.89s-3.08,1.18-3.34,2.23a5.4,5.4,0,0,1-2.88,3.36c-1.68.79-2.75,1.36-4.4,1.31s-6.11-1.16-7-3.22-8.2-9.42-8-11.6a7.94,7.94,0,0,1,2.59-5.08,6.94,6.94,0,0,1,3.76-.8,6,6,0,0,0,2.06,0s4.27-2.77,5.4-3.23-2-4.7-3.13-6.19-7.24-8.26-8.18-8.21-4.52,4.24-4.52,4.24-4.71,10.1-5.19,11.28a21.67,21.67,0,0,0-1,4.76,5.74,5.74,0,0,0,.81,3.06c.59,1.35.14,1.08,1.58,2.74" transform="translate(-661.66 -359.86)"/><path d="M703.73,383.88s3.2-7.74-1.58-11.83c-1.81-4.2-4.72-5.23-9.4-5.32s3.86,1.25,7.74,6.78c1.24,1.78,2,6.41,3.25,10.37" transform="translate(-661.66 -359.86)"/><path d="M697.88,386.76s2.92-6.46-1.22-9.78c-1.53-3.45-4.08-4.26-8.19-4.27s3.38,1,6.7,5.51c1.06,1.45,1.64,5.28,2.71,8.54" transform="translate(-661.66 -359.86)"/></svg>